<?xml version="1.0" encoding="UTF-8"?>
<svg version="1.1" xmlns="http://www.w3.org/2000/svg" width="500" height="500">
<path d="M0 0 C165 0 330 0 500 0 C500 165 500 330 500 500 C335 500 170 500 0 500 C0 335 0 170 0 0 Z " fill="#FEFEFE" transform="translate(0,0)"/>
<path d="M0 0 C4.02871572 1.61148629 6.78814556 3.04987671 10.2890625 5.45703125 C11.30339355 6.15086914 12.31772461 6.84470703 13.36279297 7.55957031 C14.43932129 8.30303711 15.51584961 9.04650391 16.625 9.8125 C17.7524567 10.58606432 18.88022709 11.35917164 20.00830078 12.13183594 C22.27745928 13.6870964 24.54482294 15.24491617 26.81054688 16.80517578 C30.39455257 19.2715116 33.98576474 21.72712506 37.57836914 24.1809082 C39.86984346 25.74647697 42.15978234 27.31426535 44.44921875 28.8828125 C47.57583462 31.02488561 50.70347462 33.16544986 53.83203125 35.3046875 C61.87581829 40.80501648 69.91455244 46.31247769 77.94213867 51.83642578 C83.12215085 55.39965604 88.31016683 58.95109297 93.5 62.5 C96.66687267 64.66636568 99.83349395 66.83309847 103 69 C103.78665039 69.53818359 104.57330078 70.07636719 105.38378906 70.63085938 C107.63165511 72.16941546 109.87848398 73.70947357 112.125 75.25 C112.80626953 75.71599609 113.48753906 76.18199219 114.18945312 76.66210938 C118.88537355 79.88537355 118.88537355 79.88537355 120 81 C120.12531154 83.9517038 120.1861113 86.88113522 120.20532227 89.83422852 C120.21522186 90.76096375 120.22512146 91.68769897 120.23532104 92.64251709 C120.26703701 95.72128704 120.2917332 98.80007245 120.31640625 101.87890625 C120.33696707 104.00740471 120.3579633 106.13589901 120.37937927 108.26438904 C120.43469004 113.87857704 120.48405947 119.49280243 120.53222656 125.10705566 C120.58237601 130.8311701 120.63809622 136.55522993 120.69335938 142.27929688 C120.80105102 153.51948466 120.90247138 164.75971976 121 176 C133.76643579 168.75565327 146.44115118 161.40697906 158.96289062 153.74609375 C160.50299805 152.81216797 160.50299805 152.81216797 162.07421875 151.859375 C162.97744873 151.30733398 163.88067871 150.75529297 164.8112793 150.18652344 C167 149 167 149 169 149 C169 228.2 169 307.4 169 389 C182.86 389 196.72 389 211 389 C211 393.95 211 398.9 211 404 C192.19 404 173.38 404 154 404 C154 328.43 154 252.86 154 175 C144.43 180.61 134.86 186.22 125 192 C123.35 192.66 121.7 193.32 120 194 C120 262.64 120 331.28 120 402 C115.05 402 110.1 402 105 402 C105 336.66 105 271.32 105 204 C90.30875434 212.19198287 90.30875434 212.19198287 76 221 C75.70524744 223.4660618 75.60852611 225.68170197 75.63923645 228.14993286 C75.63667318 228.89484824 75.6341099 229.63976362 75.63146895 230.40725219 C75.62650691 232.91641206 75.64306328 235.42497713 75.65942383 237.93408203 C75.66026958 239.72745754 75.65979597 241.52083408 75.65809631 243.31420898 C75.65723291 248.1941905 75.6749144 253.07395238 75.69581819 257.95388269 C75.71452759 263.04947462 75.71633089 268.14507116 75.71989441 273.24069214 C75.72923178 282.89506697 75.75386841 292.54934031 75.78394288 302.20367038 C75.81743431 313.19261069 75.83395965 324.18155576 75.84902918 335.17053437 C75.88041652 357.78041259 75.93320983 380.39020062 76 403 C69.67684398 403.14650645 63.35360746 403.28863439 57.03027344 403.42724609 C54.89352975 403.4746374 52.75680918 403.52308665 50.62011719 403.57275391 C33.73825136 403.96405543 16.8932456 404 0 404 C-0.33 305.99 -0.66 207.98 -1 107 C-19.18224505 117.90934703 -37.35183308 128.83128279 -55.46630859 139.8515625 C-59.1490462 142.09129602 -62.83413234 144.32714907 -66.51953125 146.5625 C-67.77392845 147.32348193 -69.02832301 148.08446822 -70.28271484 148.84545898 C-72.63051233 150.26975436 -74.97852217 151.69369749 -77.32666016 153.11743164 C-78.40351074 153.77090576 -79.48036133 154.42437988 -80.58984375 155.09765625 C-81.63640137 155.73203613 -82.68295898 156.36641602 -83.76123047 157.02001953 C-86.06047261 158.4256319 -88.35037009 159.84140426 -90.63330078 161.27294922 C-91.22873184 161.64471786 -91.8241629 162.01648651 -92.43763733 162.39952087 C-94.10059999 163.43931564 -95.76047513 164.48404358 -97.42016602 165.52905273 C-100 167 -100 167 -102 167 C-102 244.88 -102 322.76 -102 403 C-121.14 403 -140.28 403 -160 403 C-160 398.05 -160 393.1 -160 388 C-145.81 388 -131.62 388 -117 388 C-117.08378906 381.11527832 -117.16757813 374.23055664 -117.25390625 367.13720703 C-117.51090392 345.08885212 -117.68876236 323.04037444 -117.81704527 300.9909134 C-117.8370557 297.56392546 -117.85776494 294.13694208 -117.87890625 290.70996094 C-117.88310322 290.02773326 -117.88730018 289.34550558 -117.89162433 288.64260434 C-117.96117863 277.60705552 -118.08728953 266.57284521 -118.23444474 255.53808953 C-118.38426667 244.20855811 -118.47178244 232.88001644 -118.50541592 221.54943168 C-118.526265 215.18734207 -118.57519235 208.8282839 -118.69168091 202.4671669 C-118.80050342 196.47598827 -118.83374925 190.48908045 -118.8097229 184.49700737 C-118.81411588 182.30144313 -118.84583485 180.10573254 -118.9072876 177.91102409 C-119.33699037 161.76951812 -119.33699037 161.76951812 -115.44828415 157.16109419 C-111.67255062 153.97546411 -107.51385928 151.8536826 -102.99986935 149.90527511 C-99.95934173 148.52892821 -97.24822821 146.76922346 -94.4375 144.97265625 C-92.29257281 143.66778017 -90.14671414 142.36443419 -88 141.0625 C-87.13240555 140.53565613 -87.13240555 140.53565613 -86.24728394 139.99816895 C-75.71065241 133.60203869 -65.11368947 127.30998879 -54.50579834 121.0329895 C-43.71874168 114.64709195 -33.02339379 108.12855338 -22.38916016 101.49072266 C-18.20344391 98.87903418 -14.01141616 96.27790957 -9.8125 93.6875 C-9.0508252 93.21248047 -8.28915039 92.73746094 -7.50439453 92.24804688 C-2.22814996 89 -2.22814996 89 0 89 C0 59.63 0 30.26 0 0 Z " fill="#DCA832" transform="translate(219,37)"/>
<path d="M0 0 C5.61590247 2.24636099 5.61590247 2.24636099 8.36328125 4.2578125 C8.99065186 4.71043457 9.61802246 5.16305664 10.2644043 5.62939453 C11.27821167 6.36971924 11.27821167 6.36971924 12.3125 7.125 C19.49820114 12.29064698 26.80696271 17.24228683 34.1875 22.125 C41.34919685 26.86891872 48.4495249 31.6629899 55.40795898 36.70019531 C58.81173393 39.16181203 62.2534136 41.5471096 65.75 43.875 C66.64953903 44.49490814 67.54907806 45.11481628 68.47587585 45.75350952 C71.05573318 47.47153674 73.6966457 48.86897827 76.47492981 50.24038696 C88.45002227 56.5344768 88.45002227 56.5344768 91.03487778 62.31383514 C92.6469486 68.91995732 92.2959915 75.65233422 92.07421875 82.3984375 C92.06347113 84.56407442 92.05941864 86.72975389 92.0617218 88.89541626 C92.04770456 93.41491778 91.97368164 97.92793202 91.85229492 102.44580078 C91.6988006 108.23099447 91.66498208 114.00912572 91.67180157 119.79611778 C91.6693531 124.25948287 91.61998887 128.72130937 91.55478859 133.18416214 C91.52620876 135.31705736 91.50842524 137.45012613 91.50174522 139.58320236 C91.4821799 142.56287913 91.40339903 145.5351145 91.30737305 148.51318359 C91.31349106 149.82710587 91.31349106 149.82710587 91.31973267 151.16757202 C91.13936515 154.99951219 90.90655947 157.14965852 88.03679466 159.84146214 C85.74704916 161.3859941 83.4445237 162.7177193 81 164 C79.79509329 164.72573344 78.59329185 165.45666207 77.39550781 166.1940918 C76.25952148 166.85578369 75.12353516 167.51747559 73.953125 168.19921875 C73.33403259 168.56094681 72.71494019 168.92267487 72.0770874 169.29536438 C70.13622758 170.42867683 68.19320275 171.55821051 66.25 172.6875 C64.29303624 173.82837749 62.33652507 174.97002808 60.38006592 176.11177063 C58.61639911 177.14044155 56.85168786 178.16732117 55.08691406 179.1940918 C53.11437998 180.3480648 51.1561147 181.52702103 49.21777344 182.73754883 C47 184 47 184 45 184 C45.01252808 184.65632919 45.02505615 185.31265839 45.03796387 185.98887634 C45.20689736 194.97151274 45.35849684 203.95439532 45.5 212.9375 C45.51187725 213.6909029 45.5237545 214.4443058 45.53599167 215.22053909 C46.03753668 247.45913319 46.08576471 279.69552198 46.0625 311.9375 C46.06121597 313.72969027 46.06121597 313.72969027 46.05990601 315.5580864 C46.04850481 330.37207262 46.02841293 345.18603697 46 360 C41.89607778 360.17304864 37.79183844 360.33714689 33.6875 360.5 C32.55892578 360.54769531 31.43035156 360.59539062 30.26757812 360.64453125 C20.15398472 361.03893322 10.14755481 361 0 361 C0 241.87 0 122.74 0 0 Z " fill="#FEFEFE" transform="translate(234,65)"/>
</svg>
